<?xml version="1.0" encoding="utf-8"?>
<!-- Generator: Adobe Illustrator 25.4.1, SVG Export Plug-In . SVG Version: 6.00 Build 0)  -->
<svg version="1.1" id="Layer_1" xmlns="http://www.w3.org/2000/svg" xmlns:xlink="http://www.w3.org/1999/xlink" x="0px" y="0px"
	 viewBox="0 0 128.58 53.87" style="enable-background:new 0 0 128.58 53.87;" xml:space="preserve">
<style type="text/css">
	.st0{fill:#FFFFFF;}
	.st1{fill:#87BB40;}
</style>
<g>
	<g>
		<g>
			<path class="st0" d="M36.77,29.18h3.91v7.5c-1,0.76-2.17,1.34-3.49,1.74c-1.32,0.41-2.65,0.61-3.99,0.61
				c-1.92,0-3.65-0.41-5.18-1.23c-1.53-0.82-2.74-1.96-3.61-3.41c-0.87-1.45-1.31-3.1-1.31-4.93c0-1.83,0.44-3.48,1.31-4.93
				c0.87-1.45,2.08-2.59,3.63-3.41c1.55-0.82,3.29-1.23,5.23-1.23c1.62,0,3.09,0.27,4.41,0.82c1.32,0.55,2.43,1.34,3.33,2.38
				l-2.75,2.54c-1.32-1.39-2.92-2.09-4.78-2.09c-1.18,0-2.23,0.25-3.15,0.74c-0.92,0.49-1.63,1.19-2.14,2.09
				c-0.51,0.9-0.77,1.93-0.77,3.09c0,1.14,0.26,2.17,0.77,3.07c0.51,0.9,1.22,1.6,2.13,2.1c0.91,0.5,1.94,0.75,3.11,0.75
				c1.23,0,2.34-0.26,3.33-0.79V29.18z"/>
			<path class="st0" d="M56.17,38.72l-3.57-5.15h-0.21h-3.73v5.15h-4.28v-18.5h8.01c1.64,0,3.06,0.27,4.27,0.82
				c1.21,0.55,2.13,1.32,2.79,2.33c0.65,1,0.98,2.19,0.98,3.57c0,1.37-0.33,2.56-0.99,3.55c-0.66,1-1.6,1.76-2.81,2.29l4.15,5.95
				H56.17z M55.08,24.54c-0.67-0.55-1.65-0.83-2.93-0.83h-3.49v6.45h3.49c1.29,0,2.26-0.28,2.93-0.85c0.67-0.56,1-1.36,1-2.38
				C56.09,25.89,55.75,25.09,55.08,24.54z"/>
			<path class="st0" d="M77.86,35.28v3.44H63.54v-18.5h13.98v3.44h-9.72v4.02h8.59V31h-8.59v4.28H77.86z"/>
			<path class="st0" d="M89.7,32.16v6.55h-4.28v-6.61l-7.16-11.89h4.54l4.94,8.22l4.94-8.22h4.2L89.7,32.16z"/>
			<path class="st0" d="M96.86,38.19c-0.49-0.49-0.74-1.11-0.74-1.85c0-0.76,0.25-1.37,0.74-1.84c0.49-0.47,1.1-0.7,1.82-0.7
				c0.72,0,1.33,0.23,1.82,0.7c0.49,0.47,0.74,1.08,0.74,1.84c0,0.74-0.25,1.36-0.74,1.85c-0.49,0.49-1.1,0.74-1.82,0.74
				C97.96,38.93,97.35,38.68,96.86,38.19z"/>
			<path class="st0" d="M104.08,20.22h8.4c2.01,0,3.78,0.38,5.32,1.15c1.54,0.77,2.74,1.85,3.59,3.24c0.85,1.39,1.28,3.01,1.28,4.86
				c0,1.85-0.43,3.47-1.28,4.86c-0.85,1.39-2.05,2.47-3.59,3.24c-1.54,0.77-3.32,1.15-5.32,1.15h-8.4V20.22z M112.27,35.2
				c1.85,0,3.32-0.52,4.43-1.55c1.1-1.03,1.65-2.43,1.65-4.19c0-1.76-0.55-3.16-1.65-4.19c-1.1-1.03-2.58-1.55-4.43-1.55h-3.91V35.2
				H112.27z"/>
		</g>
		<g>
			<path class="st1" d="M25.87,52.21c-0.76-0.22-1.36-0.51-1.8-0.88l0.68-1.46c0.43,0.33,0.96,0.6,1.59,0.8
				c0.63,0.21,1.26,0.31,1.89,0.31c0.78,0,1.37-0.12,1.75-0.36c0.39-0.24,0.58-0.56,0.58-0.95c0-0.29-0.11-0.53-0.32-0.71
				c-0.22-0.19-0.49-0.33-0.82-0.44c-0.33-0.11-0.78-0.23-1.35-0.36c-0.8-0.18-1.45-0.37-1.95-0.55c-0.5-0.18-0.92-0.47-1.28-0.86
				c-0.36-0.39-0.53-0.92-0.53-1.58c0-0.56,0.16-1.07,0.47-1.52c0.32-0.46,0.79-0.82,1.43-1.09c0.64-0.27,1.42-0.4,2.34-0.4
				c0.64,0,1.27,0.08,1.89,0.23c0.62,0.15,1.16,0.37,1.61,0.66l-0.62,1.46c-0.46-0.26-0.94-0.46-1.44-0.59
				c-0.5-0.13-0.99-0.2-1.46-0.2c-0.77,0-1.35,0.13-1.72,0.38c-0.38,0.25-0.56,0.58-0.56,1c0,0.29,0.11,0.52,0.32,0.71
				c0.22,0.18,0.49,0.33,0.82,0.43c0.33,0.11,0.78,0.23,1.35,0.36c0.78,0.17,1.42,0.35,1.93,0.54c0.5,0.19,0.93,0.47,1.29,0.86
				c0.36,0.38,0.53,0.9,0.53,1.56c0,0.56-0.16,1.06-0.47,1.52c-0.32,0.45-0.8,0.81-1.44,1.08c-0.64,0.27-1.42,0.4-2.35,0.4
				C27.41,52.54,26.63,52.43,25.87,52.21z"/>
			<path class="st1" d="M36.06,43.88h-3.49v-1.59h8.93v1.59h-3.49v8.52h-1.95V43.88z"/>
			<path class="st1" d="M43.56,51.36c-0.81-0.78-1.22-1.91-1.22-3.37v-5.7h1.96v5.63c0,1.98,0.89,2.97,2.68,2.97
				c1.77,0,2.66-0.99,2.66-2.97v-5.63h1.92v5.7c0,1.46-0.4,2.59-1.21,3.37c-0.81,0.78-1.94,1.18-3.39,1.18
				C45.51,52.54,44.38,52.15,43.56,51.36z"/>
			<path class="st1" d="M53.96,42.29h4.6c1.12,0,2.12,0.21,2.99,0.63c0.87,0.42,1.55,1.01,2.03,1.78c0.48,0.77,0.72,1.65,0.72,2.65
				c0,1-0.24,1.88-0.72,2.65c-0.48,0.76-1.16,1.36-2.03,1.78c-0.87,0.42-1.87,0.63-2.99,0.63h-4.6V42.29z M58.47,50.81
				c0.77,0,1.45-0.14,2.04-0.43c0.59-0.28,1.04-0.69,1.35-1.21c0.32-0.52,0.47-1.13,0.47-1.83c0-0.69-0.16-1.3-0.47-1.83
				c-0.32-0.52-0.77-0.93-1.35-1.21c-0.59-0.28-1.27-0.43-2.04-0.43h-2.56v6.93H58.47z"/>
			<path class="st1" d="M66.03,42.29h1.96v10.11h-1.96V42.29z"/>
			<path class="st1" d="M72.5,51.87c-0.86-0.45-1.54-1.07-2.03-1.86c-0.49-0.79-0.74-1.68-0.74-2.66c0-0.98,0.25-1.87,0.74-2.66
				c0.49-0.79,1.17-1.42,2.03-1.86c0.86-0.45,1.83-0.67,2.9-0.67s2.04,0.22,2.9,0.67c0.86,0.45,1.54,1.07,2.03,1.86
				c0.49,0.79,0.74,1.68,0.74,2.67c0,0.99-0.25,1.88-0.74,2.67c-0.49,0.79-1.17,1.41-2.03,1.86c-0.86,0.45-1.83,0.67-2.9,0.67
				S73.36,52.31,72.5,51.87z M77.3,50.44c0.56-0.3,1-0.73,1.32-1.27c0.32-0.54,0.48-1.15,0.48-1.83s-0.16-1.28-0.48-1.83
				c-0.32-0.54-0.76-0.97-1.32-1.27c-0.56-0.3-1.19-0.46-1.9-0.46c-0.7,0-1.33,0.15-1.9,0.46c-0.56,0.3-1,0.73-1.32,1.27
				c-0.32,0.54-0.48,1.15-0.48,1.83s0.16,1.28,0.48,1.83c0.32,0.54,0.76,0.97,1.32,1.27c0.56,0.3,1.19,0.45,1.9,0.45
				C76.1,50.89,76.73,50.74,77.3,50.44z"/>
		</g>
		<polygon class="st1" points="22.82,52.67 1.55,52.67 1.55,1.26 48.78,1.26 48.78,18.11 44.56,18.11 44.56,5.4 5.71,5.4 
			5.71,48.53 22.82,48.53 		"/>
		<polygon class="st0" points="126.92,27.65 123.76,27.65 123.61,20.02 127.33,20.02 		"/>
	</g>
</g>
</svg>
