<?xml version="1.0" encoding="utf-8"?>
<!-- Generator: Adobe Illustrator 25.4.1, SVG Export Plug-In . SVG Version: 6.00 Build 0)  -->
<svg version="1.1" id="Layer_1" xmlns="http://www.w3.org/2000/svg" xmlns:xlink="http://www.w3.org/1999/xlink" x="0px" y="0px"
	 viewBox="0 0 300 126" enable-background="new 0 0 300 126" xml:space="preserve">
<g>
	<g>
		<g>
			<path fill="#323232" d="M84.71,68.31h9.25v17.76c-2.37,1.79-5.13,3.17-8.25,4.13c-3.12,0.96-6.27,1.44-9.44,1.44
				c-4.55,0-8.63-0.97-12.26-2.91c-3.63-1.94-6.47-4.63-8.54-8.07c-2.06-3.44-3.09-7.33-3.09-11.66c0-4.34,1.03-8.22,3.09-11.66
				c2.06-3.44,4.93-6.13,8.6-8.07c3.67-1.94,7.79-2.91,12.38-2.91c3.84,0,7.32,0.65,10.44,1.94c3.13,1.29,5.75,3.17,7.88,5.63
				l-6.5,6c-3.13-3.29-6.9-4.94-11.32-4.94c-2.8,0-5.28,0.59-7.44,1.75c-2.17,1.17-3.86,2.81-5.07,4.94
				c-1.21,2.13-1.81,4.56-1.81,7.32c0,2.71,0.6,5.13,1.81,7.25c1.21,2.13,2.89,3.78,5.03,4.97c2.15,1.19,4.6,1.78,7.35,1.78
				c2.92,0,5.54-0.63,7.88-1.88V68.31z"/>
			<path fill="#323232" d="M130.61,90.89l-8.44-12.19h-0.5h-8.82v12.19h-10.13V47.11h18.95c3.88,0,7.24,0.65,10.1,1.94
				c2.85,1.29,5.05,3.13,6.6,5.5c1.54,2.38,2.31,5.19,2.31,8.44c0,3.25-0.78,6.06-2.34,8.41c-1.56,2.36-3.78,4.16-6.66,5.41
				l9.82,14.07H130.61z M128.05,57.34c-1.58-1.31-3.9-1.97-6.94-1.97h-8.25v15.26h8.25c3.04,0,5.36-0.67,6.94-2
				c1.58-1.33,2.37-3.21,2.37-5.63C130.42,60.54,129.63,58.65,128.05,57.34z"/>
			<path fill="#323232" d="M181.95,82.76v8.13h-33.89V47.11h33.08v8.13h-23.01v9.5h20.33v7.88h-20.33v10.13H181.95z"/>
			<path fill="#323232" d="M209.96,75.38v15.51h-10.13V75.25l-16.95-28.14h10.75l11.69,19.45l11.69-19.45h9.94L209.96,75.38z"/>
			<path fill="#323232" d="M226.91,89.64c-1.17-1.17-1.75-2.63-1.75-4.38c0-1.79,0.58-3.24,1.75-4.35c1.17-1.1,2.61-1.66,4.32-1.66
				c1.71,0,3.14,0.55,4.31,1.66c1.17,1.11,1.75,2.55,1.75,4.35c0,1.75-0.58,3.21-1.75,4.38c-1.17,1.17-2.61,1.75-4.31,1.75
				C229.51,91.39,228.07,90.8,226.91,89.64z"/>
			<path fill="#323232" d="M243.98,47.11h19.88c4.75,0,8.95,0.91,12.6,2.72c3.65,1.81,6.48,4.37,8.51,7.66
				C286.99,60.79,288,64.62,288,69c0,4.38-1.01,8.21-3.03,11.51c-2.02,3.29-4.86,5.85-8.51,7.66c-3.65,1.81-7.85,2.72-12.6,2.72
				h-19.88V47.11z M263.36,82.57c4.38,0,7.87-1.22,10.47-3.66c2.61-2.44,3.91-5.74,3.91-9.91c0-4.17-1.3-7.47-3.91-9.91
				c-2.61-2.44-6.1-3.66-10.47-3.66h-9.25v27.14H263.36z"/>
		</g>
		<g>
			<path fill="#87BB40" d="M58.92,122.81c-1.79-0.52-3.21-1.22-4.25-2.08l1.6-3.45c1.02,0.78,2.27,1.41,3.76,1.9
				c1.48,0.49,2.97,0.73,4.46,0.73c1.85,0,3.23-0.28,4.15-0.85c0.92-0.57,1.37-1.32,1.37-2.26c0-0.68-0.25-1.25-0.76-1.69
				c-0.51-0.44-1.16-0.79-1.94-1.04c-0.78-0.25-1.85-0.53-3.2-0.85c-1.9-0.43-3.43-0.86-4.61-1.3c-1.18-0.43-2.18-1.11-3.03-2.03
				c-0.84-0.92-1.27-2.17-1.27-3.74c0-1.32,0.38-2.52,1.12-3.6s1.87-1.94,3.38-2.58c1.51-0.64,3.35-0.96,5.54-0.96
				c1.52,0,3.01,0.18,4.48,0.55c1.47,0.36,2.74,0.89,3.81,1.57l-1.46,3.45c-1.09-0.61-2.23-1.08-3.42-1.4
				c-1.19-0.32-2.34-0.48-3.45-0.48c-1.83,0-3.19,0.3-4.07,0.89c-0.89,0.59-1.33,1.38-1.33,2.36c0,0.68,0.25,1.24,0.76,1.67
				c0.51,0.43,1.16,0.77,1.94,1.02c0.78,0.25,1.85,0.54,3.2,0.85c1.85,0.41,3.37,0.84,4.56,1.28c1.18,0.44,2.2,1.12,3.04,2.03
				c0.84,0.91,1.26,2.14,1.26,3.69c0,1.32-0.37,2.52-1.12,3.59c-0.75,1.07-1.88,1.93-3.4,2.56c-1.52,0.64-3.37,0.96-5.55,0.96
				C62.57,123.59,60.71,123.33,58.92,122.81z"/>
			<path fill="#87BB40" d="M83.03,103.1h-8.26v-3.76h21.14v3.76h-8.26v20.16h-4.62V103.1z"/>
			<path fill="#87BB40" d="M100.79,120.81c-1.92-1.86-2.88-4.52-2.88-7.98V99.34h4.63v13.32c0,4.69,2.11,7.04,6.33,7.04
				c4.2,0,6.3-2.34,6.3-7.04V99.34h4.55v13.49c0,3.46-0.95,6.12-2.86,7.98c-1.91,1.86-4.59,2.78-8.03,2.78
				C105.39,123.59,102.71,122.67,100.79,120.81z"/>
			<path fill="#87BB40" d="M125.38,99.34h10.89c2.66,0,5.02,0.5,7.08,1.49c2.07,0.99,3.67,2.39,4.81,4.2
				c1.14,1.81,1.71,3.9,1.71,6.27s-0.57,4.46-1.71,6.27c-1.14,1.81-2.74,3.21-4.81,4.2c-2.06,0.99-4.42,1.49-7.08,1.49h-10.89V99.34
				z M136.06,119.5c1.83,0,3.43-0.34,4.82-1.01c1.39-0.67,2.46-1.63,3.2-2.87c0.75-1.24,1.12-2.68,1.12-4.32s-0.37-3.08-1.12-4.32
				c-0.75-1.24-1.82-2.2-3.2-2.87c-1.39-0.67-3-1.01-4.82-1.01h-6.05v16.4H136.06z"/>
			<path fill="#87BB40" d="M153.96,99.34h4.63v23.91h-4.63V99.34z"/>
			<path fill="#87BB40" d="M169.26,122.01c-2.04-1.06-3.64-2.53-4.8-4.41c-1.16-1.88-1.74-3.98-1.74-6.3c0-2.32,0.58-4.42,1.74-6.3
				c1.16-1.88,2.76-3.35,4.8-4.41c2.04-1.06,4.33-1.59,6.87-1.59c2.54,0,4.83,0.53,6.87,1.59c2.04,1.06,3.64,2.52,4.8,4.39
				c1.16,1.87,1.74,3.97,1.74,6.32s-0.58,4.45-1.74,6.32c-1.16,1.87-2.76,3.33-4.8,4.39c-2.04,1.06-4.33,1.59-6.87,1.59
				C173.59,123.59,171.3,123.07,169.26,122.01z M180.61,118.62c1.33-0.72,2.37-1.72,3.13-3.01c0.76-1.29,1.14-2.73,1.14-4.32
				s-0.38-3.03-1.14-4.32c-0.76-1.29-1.8-2.29-3.13-3.01c-1.33-0.72-2.82-1.08-4.49-1.08c-1.66,0-3.16,0.36-4.49,1.08
				c-1.33,0.72-2.37,1.72-3.13,3.01c-0.76,1.29-1.14,2.73-1.14,4.32s0.38,3.03,1.14,4.32c0.76,1.29,1.8,2.29,3.13,3.01
				c1.33,0.72,2.83,1.08,4.49,1.08C177.79,119.7,179.28,119.34,180.61,118.62z"/>
		</g>
		<polygon fill="#87BB40" points="51.7,123.91 1.38,123.91 1.38,2.27 113.13,2.27 113.13,42.14 103.14,42.14 103.14,12.06 
			11.23,12.06 11.23,114.11 51.7,114.11 		"/>
		<polygon fill="#323232" points="298.04,64.71 290.56,64.71 290.2,46.64 299,46.64 		"/>
	</g>
</g>
</svg>
